HIERARCHY
ROOT Hips
{
	OFFSET -0.001795 -0.223333 0.028219
	CHANNELS 6 Xposition Yposition Zposition Zrotation Yrotation Xrotation 
	JOINT LeftUpLeg
	{
		OFFSET 0.069520 -0.091406 -0.006815
		CHANNELS 3 Zrotation Yrotation Xrotation
		JOINT LeftLeg
		{
			OFFSET 0.034277 -0.375199 -0.004496
			CHANNELS 3 Zrotation Yrotation Xrotation
			JOINT LeftFoot
			{
				OFFSET -0.013596 -0.397961 -0.043693
				CHANNELS 3 Zrotation Yrotation Xrotation
				JOINT LeftToe
				{
					OFFSET 0.026358 -0.055791 0.119288
					CHANNELS 3 Zrotation Yrotation Xrotation
					End Site
					{
						OFFSET 0.000000 0.000000 0.000000
					}
				}
			}
		}
	}
	JOINT RightUpLeg
	{
		OFFSET -0.067670 -0.090522 -0.004320
		CHANNELS 3 Zrotation Yrotation Xrotation
		JOINT RightLeg
		{
			OFFSET -0.038290 -0.382569 -0.008850
			CHANNELS 3 Zrotation Yrotation Xrotation
			JOINT RightFoot
			{
				OFFSET 0.015774 -0.398415 -0.042312
				CHANNELS 3 Zrotation Yrotation Xrotation
				JOINT RightToe
				{
					OFFSET -0.025372 -0.048144 0.123348
					CHANNELS 3 Zrotation Yrotation Xrotation
					End Site
					{
						OFFSET 0.000000 0.000000 0.000000
					}
				}
			}
		}
	}
	JOINT Spine
	{
		OFFSET -0.002533 0.108963 -0.026696
		CHANNELS 3 Zrotation Yrotation Xrotation
		JOINT Spine1
		{
			OFFSET 0.005487 0.135180 0.001092
			CHANNELS 3 Zrotation Yrotation Xrotation
			JOINT Spine2
			{
				OFFSET 0.001457 0.052922 0.025425
				CHANNELS 3 Zrotation Yrotation Xrotation
				JOINT Neck
				{
					OFFSET -0.002778 0.213870 -0.042857
					CHANNELS 3 Zrotation Yrotation Xrotation
					JOINT Head
					{
						OFFSET 0.005152 0.064970 0.051349
						CHANNELS 3 Zrotation Yrotation Xrotation
						End Site
						{
							OFFSET 0.000000 0.000000 0.000000
						}
					}
				}
				JOINT LeftShoulder
				{
					OFFSET 0.078845 0.121749 -0.034090
					CHANNELS 3 Zrotation Yrotation Xrotation
					JOINT LeftArm
					{
						OFFSET 0.090977 0.030469 -0.008868
						CHANNELS 3 Zrotation Yrotation Xrotation
						JOINT LeftForeArm
						{
							OFFSET 0.259612 -0.012772 -0.027456
							CHANNELS 3 Zrotation Yrotation Xrotation
							JOINT LeftHand
							{
								OFFSET 0.249234 0.008986 -0.001171
								CHANNELS 3 Zrotation Yrotation Xrotation
								End Site
								{
									OFFSET 0.000000 0.000000 0.000000
								}
							}
						}
					}
				}
				JOINT RightShoulder
				{
					OFFSET -0.081759 0.118833 -0.038615
					CHANNELS 3 Zrotation Yrotation Xrotation
					JOINT RightArm
					{
						OFFSET -0.096012 0.032551 -0.009143
						CHANNELS 3 Zrotation Yrotation Xrotation
						JOINT RightForeArm
						{
							OFFSET -0.253742 -0.013329 -0.021401
							CHANNELS 3 Zrotation Yrotation Xrotation
							JOINT RightHand
							{
								OFFSET -0.255298 0.007772 -0.005559
								CHANNELS 3 Zrotation Yrotation Xrotation
								End Site
								{
									OFFSET 0.000000 0.000000 0.000000
								}
							}
						}
					}
				}
			}
		}
	}
}
MOTION
Frames: 7
Frame Time: 0.050000
-0.045071 0.946039 -0.026715 -0.248324 17.926495 7.133645 7.371556 -1.558184 -20.442977 3.505608 -1.340813 11.456409 -21.369667 -17.914517 26.533815 0.000000 0.000000 0.000000 -6.442055 0.276406 -8.962220 0.647019 -0.070258 10.095863 -0.745296 -3.689831 11.152121 0.000000 0.000000 0.000000 4.890587 -0.408652 2.557806 -4.092686 1.759700 0.505467 -3.070328 19.027286 10.412718 10.086411 -26.564436 26.587830 0.000000 0.000000 0.000000 33.149835 -1.234356 9.929272 -1.435310 -66.843823 -17.961160 115.789268 -22.180769 -45.535545 0.000000 0.000000 0.000000 -34.354115 2.548212 -4.505540 46.876689 16.136992 8.333391 -123.099998 28.067512 -19.128258 0.000000 0.000000 0.000000 
-0.045814 0.943253 -0.029016 0.187956 17.126034 7.566451 6.867194 -1.603593 -20.721146 3.692285 -1.366801 11.456143 -20.757820 -17.898980 25.590803 0.000000 0.000000 0.000000 -7.781197 0.174681 -9.936129 1.801081 -0.342867 10.995002 -0.248276 -2.566534 9.666612 0.000000 0.000000 0.000000 5.302394 -0.565083 3.859743 -5.546027 2.420589 0.153606 -2.194155 21.040805 11.053942 10.234125 -27.746134 27.055577 0.000000 0.000000 0.000000 29.490106 -0.719612 9.433908 -3.480022 -65.303529 -16.065025 117.460765 -24.389712 -50.686749 0.000000 0.000000 0.000000 -33.688232 2.930769 -4.731299 46.946636 18.165742 9.513622 -121.310622 27.679247 -16.679720 0.000000 0.000000 0.000000 
-0.046748 0.941424 -0.031429 0.538571 16.566792 7.845734 7.066030 -1.557471 -20.671846 2.820754 -1.143034 10.970675 -20.362947 -17.785054 25.103171 0.000000 0.000000 0.000000 -8.464490 0.116866 -11.216042 2.074654 -0.444183 12.624325 0.086018 -1.769844 8.706461 0.000000 0.000000 0.000000 5.446771 -0.651245 4.579021 -6.080626 2.625547 1.348151 -2.154864 21.943537 10.604806 10.503411 -28.040280 26.822508 0.000000 0.000000 0.000000 26.942930 0.106176 8.884853 -4.493940 -64.645369 -14.858004 118.588154 -23.737985 -50.669735 0.000000 0.000000 0.000000 -33.569639 3.576462 -4.656540 44.303270 18.577964 8.902912 -118.620896 27.653583 -14.620705 0.000000 0.000000 0.000000 
-0.048326 0.941011 -0.033329 0.252220 14.151199 8.295385 8.125570 -1.353657 -20.768681 1.737778 -0.909149 10.929741 -18.931062 -16.572035 24.278217 0.000000 0.000000 0.000000 -8.825520 0.164895 -12.666456 2.746735 -0.566867 13.605093 1.048741 0.349799 7.354277 0.000000 0.000000 0.000000 5.145828 -0.780154 6.127157 -6.499150 2.874397 -0.485075 -2.172709 22.679898 11.830490 8.792738 -27.624358 29.322431 0.000000 0.000000 0.000000 25.956993 1.917209 8.341833 -5.435964 -65.413327 -14.391412 120.809550 -22.211851 -49.187893 0.000000 0.000000 0.000000 -34.677348 1.770277 -4.995886 45.473800 17.642360 8.955048 -120.924773 26.198761 -13.505269 0.000000 0.000000 0.000000 
-0.050580 0.941658 -0.034712 -0.203473 11.480972 8.699207 9.180151 -1.100770 -20.443105 1.030234 -0.705434 10.408717 -17.468374 -15.145221 23.653627 0.000000 0.000000 0.000000 -7.900093 0.382676 -13.754333 1.492996 -0.169452 14.655807 1.991678 3.063767 4.907463 0.000000 0.000000 0.000000 3.800731 -0.650563 6.234933 -5.814729 2.604363 -0.902425 -2.527713 19.532915 13.031761 8.109675 -23.572136 27.713709 0.000000 0.000000 0.000000 28.271976 4.288830 7.713411 -12.343422 -66.677373 -9.457041 122.120731 -16.558353 -38.547784 0.000000 0.000000 0.000000 -32.804879 -0.218490 -4.343653 48.400209 20.855092 10.237778 -125.164506 24.417679 -16.511288 0.000000 0.000000 0.000000 
-0.053088 0.940475 -0.035698 -2.172254 6.671547 8.796921 11.865912 -0.520443 -20.080094 0.293430 -0.552828 11.354881 -14.669800 -13.004654 21.598189 0.000000 0.000000 0.000000 -6.327919 0.784539 -16.160089 1.144652 0.096802 15.739520 4.594471 8.016349 6.164846 0.000000 0.000000 0.000000 2.322090 -0.524106 6.602868 -4.189988 1.911862 -0.935502 -3.330265 14.828577 12.144650 7.422931 -19.284296 26.787568 0.000000 0.000000 0.000000 33.378944 2.338608 7.162857 -24.072060 -65.731784 -0.038905 124.745338 -10.954094 -27.052041 0.000000 0.000000 0.000000 -28.618393 -3.303022 -2.984213 54.084911 28.021636 13.635899 -129.220098 24.278724 -25.242050 0.000000 0.000000 0.000000 
-0.055566 0.938818 -0.036728 -4.199678 0.869240 9.073889 14.992745 0.303775 -20.355294 -1.309607 -0.183960 14.341475 -11.631493 -10.131133 20.089243 0.000000 0.000000 0.000000 -4.007070 1.349211 -18.163782 0.217029 0.587226 17.018850 6.559073 12.363849 5.820718 0.000000 0.000000 0.000000 0.941438 -0.361995 6.324525 -2.749958 1.275016 -0.773204 -4.070363 9.763193 11.134338 3.950785 -12.701701 29.467790 0.000000 0.000000 0.000000 38.389604 -1.883761 5.577449 -42.282025 -64.016520 13.579469 127.175688 -9.297137 -19.941076 0.000000 0.000000 0.000000 -23.952293 -4.907416 -1.416439 62.854598 32.608657 16.463724 -133.536352 28.336455 -43.125265 0.000000 0.000000 0.000000 
